/* XPM */
static char * floats_16_xpm[] = {
"16 16 2 1",
" 	c None",
".	c #34AC90",
"..............  ",
".            .  ",
".            .  ",
".            .  ",
".            .  ",
".            .  ",
".            .  ",
". ..............",
"...            .",
"  .            .",
"  .            .",
"  .            .",
"  .            .",
"  .            .",
"  .            .",
"  .............."};
